<svg xmlns="http://www.w3.org/2000/svg" viewBox="0 0 200 240" fill="none">
  <!-- Deer head -->
  <g fill="#8b5a3c">
    <!-- Left antler -->
    <path d="M70 30 L65 15 L68 10 M65 15 L60 20 M65 15 L55 12" stroke="#8b5a3c" stroke-width="3" stroke-linecap="round"/>
    <!-- Right antler -->
    <path d="M130 30 L135 15 L132 10 M135 15 L140 20 M135 15 L145 12" stroke="#8b5a3c" stroke-width="3" stroke-linecap="round"/>

    <!-- Head outline -->
    <ellipse cx="100" cy="80" rx="35" ry="40"/>

    <!-- Snout -->
    <ellipse cx="100" cy="105" rx="20" ry="15" fill="#8b5a3c"/>

    <!-- Eyes -->
    <circle cx="88" cy="75" r="4" fill="#654321"/>
    <circle cx="112" cy="75" r="4" fill="#654321"/>

    <!-- Nose -->
    <ellipse cx="100" cy="108" rx="5" ry="3" fill="#654321"/>

    <!-- Ears -->
    <ellipse cx="75" cy="55" rx="12" ry="20" fill="#8b5a3c" transform="rotate(-25 75 55)"/>
    <ellipse cx="125" cy="55" rx="12" ry="20" fill="#8b5a3c" transform="rotate(25 125 55)"/>

    <!-- Inner ears -->
    <ellipse cx="75" cy="58" rx="6" ry="12" fill="#a0826d" transform="rotate(-25 75 58)"/>
    <ellipse cx="125" cy="58" rx="6" ry="12" fill="#a0826d" transform="rotate(25 125 58)"/>

    <!-- Neck -->
    <rect x="85" y="115" width="30" height="15" rx="5" fill="#8b5a3c"/>
  </g>

  <!-- DAREWAY text -->
  <g fill="#8b5a3c">
    <text x="100" y="180" font-family="Arial, sans-serif" font-size="36" font-weight="bold" text-anchor="middle" letter-spacing="2">DAREWAY</text>
  </g>
</svg>